<?xml version="1.0" encoding="utf-8"?>
<!-- Generator: Adobe Illustrator 25.4.1, SVG Export Plug-In . SVG Version: 6.00 Build 0)  -->
<svg version="1.1" id="Calque_1" xmlns="http://www.w3.org/2000/svg" xmlns:xlink="http://www.w3.org/1999/xlink" x="0px" y="0px"
	 viewBox="0 0 822 813" style="enable-background:new 0 0 822 813;" xml:space="preserve">
<style type="text/css">
	.st0{fill:#4061B4;}
	.st1{fill:#F7AC54;}
	.st2{fill:#008439;}
</style>
<path class="st0" d="M184.4,67.4c-9.9,3.1-19.5,9.8-26,18.1c-8.8,11.4-13.3,23.4-22.3,58.6c-8.2,32.5-9.7,35.2-22.4,39.4
	c-10.5,3.5-8.4,4.2,10.5,3.7c12.6-0.3,24.1,0.2,42.3,1.7c31.2,2.7,36.7,1.9,45.3-6.2c3.6-3.4,6.4-11.1,5.5-14.9
	c-1.7-6.5-6.2-8.7-9.8-4.8c-1.6,1.8-1.6,2.2-0.1,6.6c2.3,6.7,2,9.1-1.3,12.5c-3.8,3.7-7.7,3.8-22.6,0.3c-14.5-3.3-24.5-4-36.6-2.4
	c-5.4,0.7-10.2,1-10.5,0.7c-0.4-0.4,0.9-3.7,2.9-7.4c3.9-7.7,6.6-15.9,13.2-41.7c9.2-35.6,15.3-49.1,25.9-57.4
	c2-1.5,4.2-2.2,7.3-2.2c5,0,7,0.9,12.8,5.5c6.7,5.4,8.1,5.9,10.5,3.5c2.9-2.9,2.5-4.7-1.8-9C201.5,66.3,193.3,64.6,184.4,67.4z"/>
<path class="st0" d="M504,84.6c-3.6,1.4-6.6,2.7-6.8,2.9c-0.2,0.2-1.6,5.2-3.1,11.2l-2.7,10.8l-8.3,0.5c-7.5,0.5-8.5,0.7-9.2,2.7
	c-0.8,2.3-0.7,2.3,7.2,2.3h8.1l-0.4,3.2c-0.3,1.8-3.3,14.1-6.6,27.4c-8.5,33.1-8.9,38.9-2.7,43c2.4,1.6,2.9,1.5,8.8-0.6
	c3.4-1.3,8-3.4,10.1-4.8c3.1-1.9,21.6-15.2,23.5-16.9c0.3-0.2,0-0.8-0.6-1.4c-0.8-0.8-3.2,0.3-8.4,3.9c-10.3,6.9-13.2,8.2-17.9,8.2
	c-7.5,0-7.6-5.4-0.5-31.5c1.8-6.6,4.3-16.2,5.6-21.3l2.4-9.2h10.6c10.6,0,10.7,0,11.1-2.5l0.5-2.5h-9.8H505v-2.8
	c0-1.5,1.3-7.8,2.9-14c1.6-6.2,2.8-11.2,2.7-11.1C510.6,82.1,507.6,83.3,504,84.6z"/>
<path class="st0" d="M380.2,99.1c-3.9,1.5-12.8,10.1-20.4,19.5c-3.9,4.9-7.7,9.3-8.4,9.7c-2,1.1-1.8-2.1,0.7-13
	c1.2-5.1,1.9-10,1.5-10.9c-0.9-2.3-6.2-1.1-14.5,3.1c-9.4,4.7-23.2,16.5-19.5,16.5c0.4,0,3-2,5.9-4.5c9.2-7.8,13.5-8.5,13.5-2.1
	c0,4-5.8,29.5-11.9,52.4c-2.3,8.4-4.1,15.8-4.1,16.3c0,0.6,2.6,0.9,6.2,0.7l6.3-0.3l1.6-6.5c0.9-3.6,3.1-12.6,4.8-20
	c4.3-18.3,8.3-26.2,18-36c6.2-6.3,8.9-8.2,14.6-10.4c8.4-3.4,12.7-5.6,13.7-7c1.5-2.1,0.8-5.5-1.4-7
	C384.3,97.8,383.5,97.7,380.2,99.1z"/>
<path class="st0" d="M680,102.1c-6.6,3.6-15.2,11.9-22.2,21.1c-2.7,3.8-5.6,6.8-6.3,6.8c-0.8,0-1.7-1.6-2.1-3.8
	c-2.2-12.5-5.5-20.5-9.1-22.1c-2-0.9-3.3-0.6-8.1,1.8c-7.7,4-18.2,11.8-18.2,13.6c0,1,1.9,0.2,6.2-2.5c8.4-5.5,12.9-5.1,15.2,1.4
	c1.2,3.4,5.6,23.9,5.6,26c-0.1,2.7-14.9,23.9-22,31.1c-4.8,5.1-8.4,7.5-11,7.5c-0.4,0-2.7-1.6-5-3.5c-3.9-3.2-4.5-3.4-6.3-2.2
	c-5.2,3.4-4.4,8.7,1.8,11.3c8.8,3.7,19.1-3.7,34.2-24.4c4.4-5.9,8.2-10.2,9.2-10.2c1.3,0,2,1.9,3.4,8.4
	c7.9,38.3,21.2,57.1,41.4,58.4c7.7,0.5,12.5-1,16.9-5.4c3.7-3.7,4.5-8.2,1.9-10.4c-2.5-2.1-4.9-0.6-7.7,4.5
	c-2.9,5.5-5.7,7.5-10.6,7.5c-4.4,0-7.9-1.9-12.4-6.8c-8.3-9-12.1-20.1-20.3-59.6l-2.7-12.8l3.4-5.3c4.7-7.4,12.4-16.1,16.6-18.6
	c2.1-1.2,7.4-2.6,12.6-3.4c9.2-1.4,11.6-2.8,11.6-6.5c0-2.7-3.4-5-7.1-5C687,99,683.1,100.4,680,102.1z"/>
<path class="st0" d="M452.2,100.7c-1.2,0.2-2.6,1.2-3.2,2.2c-0.8,1.5-2.6,1.9-11.4,2.3c-9.7,0.4-11.2,0.8-18.3,4.3
	c-9.8,4.8-22.6,17.3-29.6,28.8c-2.6,4.3-4.7,8.1-4.7,8.4c0,0.4-1.2,3.6-2.6,7.2c-3.5,8.6-4.4,20.3-2,26.4
	c5.3,13.9,17.2,11.8,38.1-6.7c5.1-4.6,6.5-5,6.5-2.3c0,1.3-0.7,4.6-1.5,7.3c-0.8,2.7-1.5,5.9-1.5,7.1c0,8.3,16.9,2.3,31.9-11.4
	c6.1-5.5,5.7-8.1-0.5-3.2c-5.4,4.3-11.1,7.1-13.7,6.7c-3.4-0.5-3.3-5.8,0.4-23.1c2.8-13.4,13.1-51.5,14.5-53.8
	c0.3-0.5,0.4-0.8,0.2-0.8C454.6,100.2,453.5,100.5,452.2,100.7z M435.9,114.9c1.8,1.2,1.2,4.6-3.9,23.6
	c-4.8,17.7-8.5,25.8-14.3,31.4c-10.4,10.2-21.6,10.9-24.8,1.4c-1.3-4-0.7-16.3,1.2-22.3c0.5-1.9,1.2-4.4,1.4-5.5
	c0.9-4,7.5-16.1,11-20.3c3.6-4.2,7.5-6.7,12.5-8.3C422.5,113.9,434.2,113.9,435.9,114.9z"/>
<path class="st0" d="M275.7,104.1c-15.6,3.7-30.7,20.1-37.3,40.4c-2,6.1-2.7,10.2-2.8,17.5c-0.1,8.4,0.2,10.1,2.6,15
	c4.7,9.6,14.4,14.1,25.6,12.1c16.1-3,33.2-19.5,39.9-38.5c5.7-16.1,3.6-33.1-5-41.3C292.4,103.3,285.7,101.8,275.7,104.1z
	 M285,112.9c4.7,4.9,6.1,10.4,6.2,24.2c0.1,18.6-4.2,32-13,40.8c-10.4,10.4-22.2,6.8-26.3-7.9c-1.6-5.7-1.6-23.6,0-31.5
	c1.5-7,5.9-17.5,7.4-17.5c0.6,0,0.8-0.2,0.5-0.5c-0.8-0.8,5.2-7.5,8.7-9.6c1.9-1.2,4.9-1.9,7.9-1.9C280.8,109,281.7,109.4,285,112.9
	z"/>
<path class="st0" d="M572.3,104.8c-11.5,4.1-22.2,15.7-30.2,32.7c-5.3,11.1-7.6,21.1-7.6,32c0.1,9.9,1.4,13.7,6.2,17.5
	c4.3,3.4,14.1,2.4,23.6-2.3c7-3.5,24.7-16.9,24.7-18.7c0-2.4-2.4-1.7-8.3,2.5c-8.9,6.2-16.3,9.5-21.5,9.5c-5.6,0-7.7-1.2-9.1-5.1
	c-1.2-3.4-1.5-15.7-0.5-18.3c0.3-0.8,6.9-4.6,14.7-8.5c20.7-10.2,27.9-16.4,30.9-26.4c1.5-4.9-0.4-11.1-4.4-14
	C587,102.9,578.8,102.5,572.3,104.8z M580.1,111.9c2,1.6,2.4,2.8,2.4,7.8c0,4.8-0.5,6.5-2.9,9.8c-3.7,5.1-10.3,10.3-18.9,14.9
	c-7.7,4-9.7,4.4-9.7,1.8c0-5.5,7.6-26.1,11.2-30.2C567.4,109.9,575.4,108.1,580.1,111.9z"/>
<path class="st1" d="M296.6,236.3c-4.2,7.2-9,15.4-11.4,19.7c-1.4,2.5-7.9,13.7-14.5,25c-6.7,11.3-15,25.7-18.7,32
	c-3.7,6.3-11.2,19.3-16.8,28.8c-5.6,9.6-10.2,17.5-10.2,17.6c0,0.2-2.3,4.3-5.2,9.2c-2.8,4.9-9.7,16.9-15.4,26.6l-10.2,17.7
	l8.2,14.3c4.6,7.9,9.6,16.8,11.3,19.8c1.6,3,3.9,7.1,5,9c6.9,12.1,40.3,71.3,44.6,79c1.6,3,5.2,9.2,7.8,13.8
	c5.9,10,17.9,31.3,22.6,40.2c2,3.6,4.1,7.1,4.8,7.8c1,1.1,21.6,1.4,116.9,1.5l115.7,0.2l3.5-6.3c1.9-3.5,5-9.1,6.9-12.4
	c1.9-3.2,3.5-6.1,3.5-6.3s4.5-8.3,10-17.9c5.5-9.6,10-17.7,10-18c0-0.3,1.6-3,3.5-6c1.9-3,3.5-5.7,3.5-5.9c0-0.3,3.1-5.8,6.8-12.3
	c3.8-6.6,14.7-25.9,24.2-42.9c9.5-17.1,20.7-36.8,24.7-43.9l7.4-12.9l-3.4-5.6c-1.9-3.1-4.9-8.3-6.7-11.6
	c-4.2-7.6-12.7-22.2-20.2-34.7c-3.2-5.4-5.8-10-5.8-10.3c0-0.3-1.7-3.4-3.9-6.8c-2.1-3.4-5.1-8.5-6.7-11.4c-1.6-2.9-8.6-15-15.7-27
	c-7-12-13.4-22.9-14.2-24.3s-4.2-7.2-7.6-13c-3.4-5.8-7.2-12.3-8.5-14.5c-1.2-2.2-4.4-7.8-7.1-12.5l-5-8.5l-115.9-0.2L298.5,233
	L296.6,236.3z M443.2,239h83.6l5.7,9.7c3.2,5.4,8.1,13.8,11,18.8c2.9,4.9,9.2,15.9,14.1,24.2c4.9,8.4,9.6,16.5,10.4,18
	c0.8,1.6,3.8,6.6,6.6,11.3c2.9,4.7,10.9,18.6,17.9,31c7.1,12.4,13.6,23.6,14.5,25c1,1.4,3.4,5.6,5.5,9.5c2.1,3.8,4.4,7.7,5.1,8.6
	c0.8,0.8,1.4,1.9,1.4,2.2c0,0.4,1.2,2.6,2.7,5c1.4,2.3,2.6,4.7,2.6,5.4c0,0.7,0.6,1.4,1.4,1.7c2.2,0.9,1.4,6.2-1.8,12.3
	c-1.8,3.2-3.5,6.2-3.9,6.8c-0.4,0.5-2,3.2-3.5,6c-1.6,2.7-4.7,8.4-7,12.5s-5.5,9.7-7,12.5c-1.5,2.7-4.5,7.9-6.5,11.5
	s-4.8,8.5-6.2,11c-2.8,5-10.2,18.3-13.4,23.9c-1.1,2-3.3,5.8-4.9,8.6c-1.5,2.7-4.8,8.5-7.2,12.8c-2.4,4.2-5.5,9.9-6.9,12.5
	c-1.4,2.6-3.9,6.9-5.5,9.7c-1.7,2.7-7.8,13.5-13.7,24l-10.7,19h-97c-53.4,0-104.1-0.2-112.8-0.4l-15.8-0.3l-4-7.2
	c-2.2-3.9-7-12.5-10.8-19.1c-3.7-6.6-8.1-14.5-9.8-17.5c-1.7-3-6.6-11.8-11-19.5c-4.4-7.7-9.3-16.3-10.8-19c-1.5-2.8-5.1-9.1-8-14
	c-2.8-5-7.8-13.7-11-19.5c-8.6-15.5-17.7-31.6-22-39c-2.1-3.6-3.8-7.1-3.8-7.8c0-0.6-0.4-1.2-0.7-1.2c-1.1,0-8-13.6-8-15.6
	c0.1-1.1,1.4-4.2,3-6.9c4.7-7.9,11.2-19.2,14.9-25.9c1.8-3.3,4.4-7.5,5.7-9.3c1.3-1.7,2.4-3.4,2.4-3.6c0-0.8,12.3-22.2,13-22.7
	c0.4-0.3,1.5-2.1,2.4-4c0.8-1.9,2-4.2,2.5-5c0.5-0.8,6-10.3,12.2-21c6.1-10.7,14-24.2,17.4-30c3.4-5.8,10.6-18.2,16.1-27.7l9.9-17.2
	l8.5-0.3c4.7-0.2,17.7-0.2,29-0.1C350.3,238.8,397.1,238.9,443.2,239z"/>
<path class="st1" d="M311.4,248.8c-3.9,0.3-4.3,0.6-8.8,8.1c-2.6,4.3-5.7,9.5-6.9,11.7c-2,3.6-7.8,13.7-12.8,22.4
	c-19.2,33-25.4,43.6-25.8,44c-0.4,0.3-1.9,3-3.5,6c-1.6,3-3.5,6.2-4.2,7.1c-0.8,0.8-1.4,2.1-1.4,2.7c0,0.7-0.5,1.2-1.1,1.2
	c-0.5,0-0.8,0.4-0.5,0.8c0.3,0.5-0.2,1.8-1.2,2.8c-0.9,1.1-1.8,2.5-2,3.2c-0.3,1.8-13.5,23.6-14.4,24c-0.4,0.2-0.8,1.1-0.8,2.1
	c0,0.9-0.8,2.6-1.8,3.7c-1,1-2.1,2.7-2.5,3.6c-0.3,1-3.1,6-6,11.2c-4.4,7.4-5.2,9.7-4.4,11.2c0.5,1,7,12.5,14.3,25.5
	c7.4,13,13.4,24.1,13.4,24.7s0.4,1.2,0.8,1.4c0.4,0.1,3.1,4.3,5.9,9.3c2.7,4.9,8.2,14.6,12.1,21.5c4,6.9,7.2,13,7.2,13.7
	c0,0.6,0.4,1.3,0.8,1.5c0.5,0.1,3.1,4.3,5.9,9.3c2.8,4.9,9,15.8,13.7,24.1c4.7,8.3,8.6,15.4,8.6,15.8c0,0.4,0.5,1.2,1.1,1.9
	s3.3,5.4,6,10.5l5,9.2h106.7c102.2,0,106.8-0.1,107.9-1.8c0.9-1.6,6.3-11,18.1-32.1c1.4-2.5,3.8-6.7,5.3-9.3
	c1.6-2.7,2.9-5.2,2.9-5.7c0-0.4,0.8-1.6,1.8-2.7c1-1,2.4-3.4,3.1-5.2c0.7-1.7,1.8-3.2,2.4-3.2c0.6,0,0.7-0.3,0.4-0.6
	c-0.3-0.4,0.4-2.5,1.7-4.8c1.3-2.2,6.2-10.9,10.8-19.1c4.7-8.3,11.5-20.2,15-26.5c3.6-6.3,7.8-13.8,9.3-16.5
	c1.6-2.8,4.2-7.5,5.8-10.5c1.6-3,3.3-6,3.7-6.5c0.4-0.6,2.8-4.6,5.2-9c2.5-4.4,5.5-9.7,6.7-11.8l2.2-3.9l-4.2-7.1
	c-2.3-4-5.3-9.2-6.7-11.7c-1.3-2.5-2.8-5-3.2-5.5c-0.4-0.6-1.9-3-3.3-5.5c-4.6-8.3-19.4-33.5-21-36.1c-1-1.4-1.4-2.9-1-3.2
	c0.3-0.4,0.2-0.7-0.4-0.7c-0.5,0-2-1.9-3.2-4.3c-1.2-2.3-4.4-7.8-7-12.2c-8-13.3-27.1-46-36.6-62.7l-9-15.8h-73
	c-40.1,0-86.5-0.2-103-0.3C329,248.5,313.7,248.6,311.4,248.8z M517.6,255.4c1.1,0.4,10.4,16,10.4,17.5c0,0.5,0.4,1.1,0.8,1.3
	c0.4,0.1,3,4.1,5.7,8.8c2.7,4.7,11.5,19.8,19.7,33.7c8.1,13.8,15.1,26,15.5,27c0.3,1,1,2,1.3,2.3c0.4,0.3,3,4.5,5.8,9.5
	c9.6,17.2,12.2,21.7,27.5,47.7c5.1,8.8,5.6,11.7,2.9,16.3c-1,1.6-3.2,5.5-4.9,8.5c-1.6,3-9.8,17.6-18.2,32.4
	c-8.3,14.8-15.1,27.2-15.1,27.6c0,0.3-0.9,1.6-2,2.8c-1.2,1.2-1.9,2.2-1.6,2.2c0.6,0-13.5,25.3-14.4,26c-0.4,0.3-1,1.5-1.4,2.7
	c-0.4,1.3-1.2,2.3-1.7,2.3s-0.9,0.5-0.9,1.1c0,1.1-9.2,18-14.1,25.9c-3.4,5.6-9.3,16.1-12,21.8l-2.1,4.2H415.4H312.1l-1.6-2.2
	c-3.6-5.2-22.2-38.7-21.7-39.2c0.3-0.4,0.1-0.6-0.5-0.6c-0.6,0-1.6-1.5-2.4-3.3c-0.7-1.7-1.6-3.4-1.9-3.7c-0.6-0.5-19.8-34-26-45.5
	c-3.4-6.2-23.7-42.3-27.3-48.5c-6-10.4-10.7-19.5-10.7-21c0-1.7,4.4-10.4,8.5-17c2.4-3.8,19.5-33.5,24-41.5
	c2.5-4.5,20.6-35.6,29.5-50.5c0.5-0.8,3.5-6,6.6-11.5c3.2-5.5,6.2-10.3,6.7-10.6s0.9-1,0.9-1.5c-0.1-0.9,5.7-11.5,6.7-12.4
	c0.3-0.3,2-3.2,3.8-6.5c2.8-5.5,3.4-6,7-6.5C318,254.4,515.9,254.8,517.6,255.4z"/>
<path class="st1" d="M342.8,298c-15,2.7-29.5,10.8-38.7,21.6c-11.6,13.8-17.4,32.9-15.1,49.7c1.1,7.7,3.3,15.4,5.8,20.2
	c0.9,1.6,1.6,3.3,1.7,3.6c0.1,1.5,10.2,14.2,13.2,16.4c1.8,1.5,3.3,3.5,3.3,4.6c0,1.2-2.3,4.3-5.3,7.2c-5.6,5.4-12.7,16.5-15.3,24
	c-5.3,14.9-4.7,32.5,1.4,46.6c0.9,2,1.5,3.9,1.4,4.3c-0.1,0.5,0.2,0.8,0.7,0.8s1.4,1.3,2.1,3c0.7,1.6,1.6,3,2.1,3s0.9,0.5,0.9,1
	c0,0.6,1.3,2.5,2.9,4.3c1.6,1.7,3.8,4.1,4.8,5.3c5,5.7,21.1,14.1,31.3,16.4c6.7,1.4,19.6,1.2,27-0.6c9.3-2.1,19.9-7.7,26.9-14
	c5.9-5.4,6.7-7.6,3.4-8.8c-1-0.4-3,0.8-5.7,3.5c-14.3,14.3-40.6,19.4-59.5,11.7c-1.4-0.6-3.2-1.2-4-1.4c-2.1-0.4-11.3-7-15.9-11.3
	c-16.6-15.8-21.9-43.8-12.4-65.6c3.3-7.8,10.3-17.8,14.5-20.6c1.7-1.3,3.5-2.7,3.8-3.1s1.9-1.8,3.6-3.1c3.4-2.5,3.3-3.4-1-5.6
	c-14.5-7.5-25.7-29.5-25.7-50.4c0-11.1,4.4-26.3,8.4-28.9c0.6-0.4,0.7-0.8,0.3-0.8c-1.5,0,5-8.4,10.2-13.3c3.1-2.9,8.5-6.4,13.4-8.7
	c13.4-6.3,24.7-7.5,38-4.1c11,2.9,18.2,6.8,26.5,14.5c4.2,4,4.2,4,6.2,2.1c1.9-2,1.9-2-1.6-5.7c-1.8-2.1-3.4-3.5-3.4-3.2
	c0,0.3-1.7-0.8-3.7-2.4C377.2,300.6,357.2,295.4,342.8,298z"/>
<path class="st1" d="M343.2,314.1c-7.6,1.3-18.7,7.2-24.6,13.2c-18.5,18.7-19.1,47.9-1.4,67.3c4.6,5,15.6,12.8,18.2,12.9
	c0.6,0.1,2.9,0.6,5.1,1.2c2.2,0.7,9,1.3,15,1.5l11,0.3l0.3-2.6l0.3-2.6l-11.8-0.6c-21.4-1-32-7.2-40.1-23.6c-3.2-6.5-3.7-8.4-4-16.7
	c-0.5-9.9,0.6-15.8,4-22.8c5.4-10.7,15-18.3,26.8-21c8.8-2.1,13.5-2,21.6,0.5c7.7,2.3,12.2,4.8,17.5,9.6l3.6,3.3l1.9-2.1
	c1.9-2.1,1.9-2.2-3.4-6.8c-7.4-6.6-22.1-12.2-31.2-12C350.1,313.2,346.1,313.6,343.2,314.1z"/>
<path class="st1" d="M424.7,400.7c-0.4,0.3-0.7,1.6-0.7,2.8c0,1.9,0.9,2.2,8.1,3.3c15.9,2.3,24,9.6,37.5,34c5.3,9.4,6.2,9.9,7.8,4.4
	c0.4-1.2,1.1-2.2,1.5-2.2c0.4,0,0.8-0.6,0.8-1.3c0-2.7,9.2-16.3,15.3-22.7c7.9-8.2,12.6-10.7,22.9-12.2c7.8-1.1,7.8-1.1,7.1-3.7
	c-0.6-2.4-1-2.6-5.6-2.3c-7.1,0.4-14.3,2.7-19.7,6.3c-6.1,4-14.7,13.5-19.4,21.5c-2.1,3.5-4.5,6.4-5.3,6.3c-0.8,0-3.9-3.4-6.7-7.7
	c-7.5-11-15.2-18.5-22.6-22.1C438,401.3,426.5,398.9,424.7,400.7z"/>
<path class="st1" d="M424,419.9c0,2.7,0.3,3.1,2.8,3.1c5,0,12,3.1,16,7c3.9,3.9,17.6,29.2,16.5,30.4c-0.4,0.3-0.1,0.6,0.5,0.6
	c2.6,0,0.9,5.9-5.3,18.7c-3.5,7.3-7.4,14.7-8.6,16.4c-3.5,5-9.6,8.7-16.1,10c-5.5,1.1-5.9,1.3-5.6,3.8c0.3,2.3,0.7,2.6,3.8,2.3
	c13.2-1,20.3-7.5,30.6-27.7c11.1-21.9,10.8-17.8,1.8-36.2c-4.3-8.7-8.3-16.4-8.8-17.2c-5.7-7.2-14.9-12.9-22.6-13.8l-5-0.6V419.9z"
	/>
<path class="st1" d="M514.2,418.9c-10.4,3.6-15.7,10.1-27.1,33.5l-5.9,11.8l4.3,9.2c6.6,14.3,14.2,27.4,17.8,30.6
	c4.1,3.8,12,7.7,17.5,8.5c4.2,0.7,4.2,0.6,4.2-2.3c0-2.8-0.4-3.1-4.8-4.1c-7.1-1.5-9.4-2.6-12.9-6.1c-3.4-3.3-11.3-16.9-11.3-19.4
	c0-0.8-0.4-1.6-0.9-1.8c-1.4-0.5-6.1-11.7-6.1-14.6c0-2.9,12.3-28.1,14.4-29.4c0.6-0.4,0.7-0.8,0.1-0.8c-0.5,0,1-1.8,3.3-3.9
	c4.1-3.9,11.4-7.1,15.9-7.1c1.9,0,2.3-0.5,2.3-3c0-2.6-0.4-3-2.7-3C520.7,417.1,517.1,417.9,514.2,418.9z"/>
<path class="st1" d="M339,420.9c-26.6,8.6-40.4,34.5-32.3,60.6c2.9,9.2,11.3,20.4,19.1,25.4c2.6,1.7,5.2,3.4,5.7,3.8
	c0.6,0.5,1.7,1,2.5,1.2c0.8,0.2,4,1,7,1.8c3.8,1.1,8.4,1.4,14.8,1c8.1-0.4,10.1-0.9,16.5-4.1c4-2,9.2-5.4,11.7-7.5l4.5-4l-2.2-2.2
	l-2.1-2.2l-2.4,2.6c-4,4.4-12.6,9.5-18.2,10.8c-3,0.6-9.3,1-14.3,0.7c-7.6-0.3-10.1-0.9-15.5-3.6c-14.3-7-22.8-21.5-22.8-38.8
	c0-16.8,8.1-30.1,23-37.5c5.5-2.7,8-3.3,17-3.9c5.8-0.4,11.6-0.7,12.9-0.6c1.8,0.1,2.6-0.6,3.2-2.7l0.7-2.7l-11.6,0.1
	C347.8,419.1,342.9,419.6,339,420.9z"/>
<path class="st1" d="M470.4,487.2c-2,4-4,7.4-4.5,7.6c-0.5,0.2-0.9,0.8-0.9,1.4c0,1.6-6.1,10-11.5,15.6c-6.5,7-12.3,9.9-21.6,10.9
	c-6.6,0.7-7.4,1-7.7,3.1c-0.5,3.1,1.9,3.7,9.7,2.5c13.6-2.1,23.6-9.7,34.4-26.1c5.4-8.2,7.7-9.1,10.3-4c0.9,1.8,2,3.5,2.3,3.8
	c0.4,0.3,1.8,2.1,3.1,4c4.3,6.1,13.3,15.1,17.8,17.8c4.9,2.8,13.7,5.2,19.5,5.2c3,0,3.7-0.4,3.7-2c0-1.1,0-2.3,0-2.8
	c0-0.4-3.2-1-7.1-1.4c-4-0.4-9.1-1.7-11.6-3c-8.5-4.2-19.1-17-27.3-33c-1.9-3.8-3.8-6.8-4.2-6.8C474.4,480,472.4,483.3,470.4,487.2z
	"/>
<path class="st2" d="M719.2,406.2c-10.3,5.2-19.4,13.6-20.8,19.4c-0.3,1.3-1,2.4-1.4,2.4c-1.4,0-2.4,8.3-2.4,20.5
	c-0.1,10.6-0.3,12-1.8,12.3c-2.7,0.5-18.6-9.6-25.3-16c-3.2-3.2-6.3-5.8-6.7-5.8c-0.4,0-0.8-0.4-0.8-1c0-0.5-2.1-3.8-4.7-7.4
	c-5.1-7.1-7.4-7.7-7.2-1.7c0,2,0,7.6,0,12.4c-0.2,8.7-0.1,8.8,3.5,13.2c3.5,4.4,9.5,7.9,17.9,10.7c4.7,1.5,10.5,4.9,10.5,6
	c0,0.4,0.9,0.8,2,0.8c1.1,0,2,0.4,2,1c0,0.5,0.4,1,1,1c0.9,0,6.6,4,13.8,9.8c6.8,5.5,18.4,17.8,19.8,21.2c2.5,5.9,3.5,21.2,1.9,31.5
	c-2.3,15.1-6,29.5-7.7,29.5c-0.4,0-0.8,0.9-0.8,1.9c0,1.1-0.4,2.2-0.9,2.6c-0.5,0.3-1.2,1.9-1.6,3.5c-0.4,1.6-1.8,4.6-3.2,6.7
	c-1.4,2.1-3.8,5.9-5.2,8.5c-7.3,13.1-28.7,35.4-41.3,43.1c-3.8,2.3-8.9,5.4-11.3,6.9c-2.5,1.5-7.3,4.2-10.7,6
	c-3.5,1.8-6.5,3.6-6.8,3.9c-2.7,3.4-28.5,12.7-30.3,11c-1.2-1.2,1.3-9,4.5-13.8c4-5.9,16.3-15.7,27.3-21.8c2.7-1.5,6.2-3.8,7.7-5
	c1.6-1.3,3.7-2.7,4.9-3c1.2-0.4,2.9-1.4,3.8-2.3c0.9-1,3-2.6,4.6-3.7c3.3-2.3,6.9-5.7,10.4-9.9c2.2-2.7,2.3-3.6,1.8-10.2
	c-0.3-4-0.8-7.8-1.2-8.4c-0.4-0.6-2.2,0.1-4.8,1.8c-2.3,1.5-5.3,3.2-6.7,3.8c-1.4,0.6-4.2,1.9-6.3,2.8c-2.1,0.9-4.2,1.6-4.8,1.6
	c-0.5,0-4.1,3.1-8,7c-3.8,3.8-7.7,7-8.4,7c-0.8,0-1.5,0.4-1.5,1c0,0.5-0.4,1-0.9,1s-2.7,1.8-4.9,4l-4,4h-10.1
	c-7.8,0-12.7,0.6-21.4,2.8c-19.5,5-20.8,5.1-37.2,5c-15.3-0.2-25.2,1-27.9,3.4c-0.6,0.4-1.8,0.8-2.7,0.8c-4.3,0-21.5,10-22.8,13.3
	c-0.2,0.5-1.2,1.8-2.2,2.8s-2.1,3-2.5,4.4c-0.3,1.4-1,2.8-1.5,3.1c-0.5,0.3-0.9,1.4-0.9,2.5c0,1-0.4,1.9-1,1.9c-0.5,0-1,0.6-1,1.2
	c0,2.1-10,13.2-13,14.5c-5.7,2.5-4.4,3.3,5.5,3.3c8.9,0,18.9-1.7,24-4c1.1-0.5,5.5-2.3,9.8-4c4.2-1.8,7.7-3.6,7.7-4.1s0.5-0.9,1-0.9
	c1.6,0,9.9-6.4,10-7.6c0-1.5,12.4-13.9,17.7-17.7c2.4-1.7,4.3-3.4,4.3-3.9s0.5-0.6,1-0.3c0.6,0.3,1,0.1,1-0.4c0-0.6,1.1-1.1,2.5-1.1
	c4,0,3.2,3.7-3.5,17.4c-6.1,12.4-9.4,16.6-12.9,16.6c-1.1,0-2.3,0.4-2.6,1c-1.5,2.4,15.6-0.3,25.3-3.9c10.4-3.9,20.2-11.5,20.2-15.7
	c0-0.9,1.8-4.2,4.1-7.4c7.4-10.6,24.8-20.7,31.8-18.5c3.7,1.2,3.6,9.5-0.2,9.5c-1.9,0-14.3,8.8-19.2,13.8c-5.4,5.4-6.8,7.3-8.7,11.2
	c-1.6,3.3-8.7,11.2-11.3,12.5c-2.7,1.4-9,3.4-14.5,4.5c-2.5,0.5-6.9,1.6-9.8,2.4c-3,0.8-7,1.8-9.1,2.1c-2.1,0.3-5.3,1-7.2,1.5
	c-1.8,0.6-7.6,1.2-12.9,1.5c-5.2,0.4-12.2,1-15.5,1.6c-3.3,0.5-9.8,1.2-14.5,1.5c-21.3,1.2-47.6,3.4-56,4.6
	c-4.1,0.6-10.1,1.9-13.2,2.9c-6.9,2.3-13.2,2.4-21.3,0.3c-10.4-2.7-18.6-4.3-31.5-6.4c-6.9-1.1-13.8-2.5-15.4-3
	c-1.6-0.6-5.4-1-8.5-1s-10.5-0.7-16.6-1.6c-6-0.8-14.1-1.7-18-1.9c-11-0.6-27.6-2.4-28.8-3.2c-0.6-0.3-4.4-1-8.6-1.4
	c-12.7-1.3-32.5-4.9-34.7-6.3c-1.1-0.8-4.6-1.7-7.7-2.1c-3.2-0.4-6-1.1-6.3-1.6c-0.3-0.5-1.6-0.9-3-0.9c-1.4,0-4.4-0.9-6.6-2
	c-2.3-1.1-4.8-2-5.5-2s-1.3-0.5-1.3-1c0-0.6-0.6-1-1.4-1c-2.3,0-29.3-12.6-30.2-14.1c-0.3-0.5-1.2-0.9-2-0.9c-0.9,0-3.4-1.3-5.7-2.8
	c-2.3-1.6-6.2-4-8.7-5.3c-2.5-1.3-5.4-3.2-6.4-4.2c-1.1-0.9-2.6-1.7-3.3-1.7s-1.3-0.3-1.3-0.8c0-0.4-1.8-1.8-4-3.2s-4-2.8-4-3.2
	c0-0.5-0.6-0.8-1.2-0.8c-0.7,0-3.3-1.8-5.8-4s-4.8-4-5.3-4c-0.8,0-12-11.7-19.2-20.1c-2.6-3.1-8.5-11.8-8.5-12.6
	c0-0.4-0.8-1.5-1.7-2.5c-3.6-4-7.2-21.2-8.3-39.2c-0.7-13-0.6-15.4,0.8-18.5c1-2,2.2-4.1,2.9-4.6c0.7-0.6,2.6-4.1,4.3-7.8
	c2.1-4.9,4.5-8.3,8.1-11.5c6.6-6,17.7-13.6,25.4-17.2c3.3-1.6,8.3-4.3,11-6c2.8-1.7,5.7-3.3,6.5-3.7c5-2.2,15-10.3,15-12.2
	c0-0.5,0.5-1.1,1.1-1.3c1.4-0.5,4.1-9.8,4.7-16.3c0.4-4.9-1.5-15.5-2.8-15.5c-0.4,0-2.4,2.8-4.5,6.2c-6.7,11.1-8.9,14.1-14.7,19.8
	c-5.8,5.7-12.6,10-15.8,10c-1.9,0-3-3.6-3.6-11.5c-0.4-5.3-5.2-17.9-9.4-24.1c-1.8-2.8-5.2-6.3-7.7-7.8c-2.4-1.6-4.9-3.4-5.6-4
	c-0.7-0.7-2.5-1.7-4.2-2.3c-1.6-0.6-3.8-1.4-4.8-1.8c-2-0.9-1.8,0,2.3,9.1c3.6,7.6,5.5,22.4,4.5,34.9c-1.2,17-8.5,40.7-16.7,53.9
	c-5.6,9.2-6.5,11.2-7.3,15.7c-1.2,7.4-1,27.9,0.3,36.4c1.5,8.9,8,26,11.7,31c1.4,1.7,2.5,3.5,2.5,3.9c0,2.4,20.8,25.6,22.9,25.6
	c0.4,0,3.8,2.6,7.7,5.8c6.8,5.7,15.7,12.2,16.8,12.2c0.3,0,5.1,2.7,10.6,6s10.4,6,10.9,6s4.4,1.7,8.7,3.9c9.1,4.5,12.8,6.1,20.4,9.1
	c3,1.2,6.6,2.7,8,3.3c1.4,0.5,3.1,1.1,3.7,1.3c1.8,0.3,15.1,5.2,19.1,7c1.8,0.8,3.9,1.4,4.6,1.4c1.6,0,17.3,4.8,20.1,6.1
	c1.1,0.5,5.2,1.6,9,2.4c9.4,1.9,19.3,4.3,23,5.7c1.7,0.6,7.3,1.6,12.5,2.3c11.3,1.5,25.8,4,35.5,6c3.9,0.8,13.8,2.1,22,3
	c20.1,2.1,31.6,4.1,33.3,5.8c1.2,1.3,0,2.5-8.4,8.8c-5.4,4.1-10.6,8.1-11.5,8.9c-0.9,0.8-3.9,3.3-6.7,5.5c-2.8,2.1-4.8,4.2-4.3,4.5
	s5.6,0.2,11.3-0.1c5.6-0.4,12.7-0.7,15.6-0.8c4.2-0.1,5.2-0.4,5.2-1.9c0-2.2,3.6-8,6.3-10.3c7.5-6.1,19.5-9.4,21.6-6
	c0.5,0.7,4.6,5.1,9.1,9.7c7.4,7.5,8.5,8.3,10.9,7.6c1.4-0.4,8.3-0.7,15.4-0.7c7,0,12.7-0.2,12.7-0.4c0-0.4-3.2-3.2-7.9-6.9
	c-1.8-1.5-6.6-5.2-10.5-8.3c-3.9-3.1-7.9-5.9-8.8-6.2c-2.6-0.9-2.3-4.6,0.5-5.1c3.7-0.8,25-2.6,29.9-2.6c2.6,0,4.9-0.4,5.2-0.9
	c0.3-0.4,3.8-1.1,7.8-1.5c10-0.9,40.6-5.5,44.4-6.6c1.6-0.6,6.6-1.3,11-1.6c4.3-0.4,8.1-1.1,8.4-1.5c0.6-0.8,14.5-4.3,25.5-6.3
	c3.3-0.6,6.9-1.6,8-2.2c2.8-1.6,18.4-6.4,20.6-6.4c1,0,2-0.4,2.4-0.9c0.3-0.5,4.2-2.2,8.8-3.7c15.4-5,31.1-11.5,45.4-18.5
	c7.9-3.9,14.3-7.4,14.3-7.8c0-0.3,1.3-1.2,2.8-1.9c1.6-0.6,3.8-2.1,5-3.2c1.2-1.1,2.6-2,3.1-2s1.6-0.6,2.3-1.3
	c0.7-0.6,3.1-2.5,5.3-4.1c9.2-6.7,34.5-34.2,34.5-37.6c0-0.5,0.4-1,0.9-1s1.4-1.4,2.1-3c0.7-1.7,1.6-3,2.1-3s0.9-0.7,0.9-1.5
	s0.4-2.3,0.9-3.3c0.5-0.9,1.9-4.4,3.1-7.7s2.7-7.1,3.3-8.4c1.7-3.5,1.6-49.6,0-51.3c-0.7-0.6-1.3-2.2-1.3-3.4s-1.2-4.3-2.7-7
	c-3.3-5.8-6.4-14.2-10.5-27.9c-2.7-9.1-3-11.5-3.1-26c-0.3-22.1,2.4-32.9,10.3-42.2c1.2-1.4,1.3-3.3,0.3-3.3
	C727.8,402,723.8,403.9,719.2,406.2z"/>
<path class="st2" d="M36.2,443.7c0,4.3-0.4,13.6-1.1,20.7c-1,10.2-0.9,14.9,0,22c0.7,5,1.5,9.5,1.9,10.1c0.4,0.5,1.3,3.2,2,6
	c2,7.3,7.4,16.3,13.2,21.8c2.7,2.7,5.1,4.7,5.3,4.5s-0.1-2.6-0.6-5.3c-1.2-6.2-0.4-12.5,2.8-23.5c6.8-23.1,7.4-27.5,5.1-35.4
	c-0.9-3.2-3.9-6.8-13.6-16.4c-6.9-6.7-13-12.2-13.8-12.2C36.4,436,36.1,437.9,36.2,443.7z"/>
<path class="st2" d="M776,451c0,0.5-0.4,1-1,1c-1,0-2.4,1-8,6c-6.8,6.1-10.1,20.1-6.3,27.3c2.4,4.7,4.3,12.5,4.3,18
	c0,4.5-2.4,11.7-3.9,11.7c-0.3,0-1.8,1.1-3.2,2.4c-1.4,1.3-3.4,2.6-4.5,2.8c-1.1,0.2-1.5,0.6-0.8,1c0.6,0.4,2.7-0.2,4.7-1.2
	c2.1-1.1,5.3-2.8,7.2-3.9c6.6-3.5,19.5-12.6,19.5-13.8c0-0.6,0.3-1.3,0.8-1.5c0.4-0.2,1.7-1.7,2.9-3.4c3.4-4.9,3.3-18.2-0.2-22.4
	c-3.4-4.1-9.5-17.9-9.5-21.3c0-2-0.4-3.7-1-3.7C776.5,450,776,450.4,776,451z"/>
<path class="st2" d="M658.3,491.1c-0.3,1.6-0.9,3.1-1.3,3.4c-0.9,0.6,0.6,10.7,2.7,17c1.8,5.6,8.4,12.7,14.9,16c2.2,1,6.2,3.3,8.9,5
	c2.8,1.7,7.6,4.4,10.8,6c6.1,3.1,12.7,9.4,12.7,12c0,2.5,1.4,1.7,4-2.3c3-4.6,3.9-15.4,1.9-24.2l-1.3-5.9l-7.5-3.7
	c-4.2-2.1-8.1-3.9-8.7-4c-1.1-0.2-7.4-3-20.1-9.1c-2.9-1.4-7.8-4.9-10.8-7.9l-5.6-5.3L658.3,491.1z"/>
<path class="st2" d="M168,496.5c-3.6,0.7-10.8,2-16,2.9s-10.3,2.1-11.2,2.6c-1,0.6-2.7,1-3.9,1c-1.1,0-4.4,1.3-7.2,2.8
	c-2.9,1.6-6.5,3.2-8.1,3.6c-1.6,0.4-5.3,2.6-8.2,4.8c-4.1,3.2-5.5,5.1-6.3,8.2c-1.2,5.2-2.5,18.6-1.8,18.6c0.5,0,11.2-5.8,14.7-8.1
	c3.2-2,5.8-2.7,14.2-3.9c7.3-1,10.2-2,16.8-5.7c4.4-2.5,8-5,8-5.4c0-0.5,0.9-0.9,2-0.9c1.2,0,3-0.9,4.2-2c1.2-1.1,2.7-2,3.2-2
	c0.6,0,2.6-2.1,4.5-4.5c1.8-2.5,3.7-4.5,4.2-4.5c0.4,0,2.2-2,3.9-4.5l3.1-4.5l-4.8,0.1C176.7,495.1,171.6,495.8,168,496.5z"/>
<path class="st2" d="M793,508.5c-3.6,3.5-6.8,6.5-7.2,6.5c-2.1,0-31.8,30.1-31.8,32.1c0,0.4-0.7,1.4-1.5,2.2
	c-2.3,2.4-8.1,14.6-9.8,20.7c-2,7.6-1.3,17,1.1,13.4c1.2-1.8,11.8-7.4,14-7.4c1.1,0,2.2-0.4,2.4-0.8c0.3-0.8,12.8-7.2,14.1-7.2
	c0.5,0,1.4-0.6,2.1-1.3c0.8-0.6,2.4-1.9,3.6-2.7c3.8-2.6,5.5-4.4,7.9-8.3c1.2-2,2.6-3.7,3-3.7c0.4,0,1.3-1.7,2-3.8
	c0.8-2,2.2-5.6,3.3-8c2.9-6.5,3.9-13.9,3.6-26.6l-0.3-11.6L793,508.5z"/>
<path class="st2" d="M18.4,522.2c0.4,1.3,0.9,4.5,1.3,7.1c0.3,2.6,1,5,1.4,5.3c0.5,0.3,0.9,1.4,0.9,2.5c0,1,0.5,1.9,1,1.9
	c0.6,0,1,1.1,1,2.5s0.4,2.5,0.9,2.5s1.2,0.8,1.5,1.7C27.9,550.2,39,560,42.7,560c2,0,8,2,10.1,3.3c0.7,0.5,2.5,1.1,3.9,1.3
	c1.5,0.3,4.1,1.1,5.8,1.9c1.6,0.7,4.7,1.8,6.7,2.5c2,0.6,4.2,1.8,4.8,2.6c0.7,0.7,1.7,1.4,2.2,1.4c1.3,0,0.3-4-2.3-9.7
	c-1-2.3-1.9-4.7-1.9-5.3c0-2.8-11.9-16-14.5-16c-0.3,0-3.8-2-7.8-4.4c-3.9-2.4-11.2-6.5-16.2-9.1c-4.9-2.6-9.7-5.3-10.5-6
	c-0.8-0.6-2.3-1.5-3.4-1.9C18.1,520.1,17.9,520.3,18.4,522.2z"/>
<path class="st2" d="M147,532.7c-16.9,2.8-29.4,13.7-30.7,26.6c-0.8,7.6,1.3,18.3,4.5,23.4c3,4.8,4.2,5.4,4.2,2
	c0-1.2,0.7-3.5,1.5-5.1c0.8-1.5,1.5-3.5,1.5-4.3c0-2.1,6.2-15.3,7.2-15.3c0.4,0,0.8-0.7,0.8-1.5c0-1.8,2.6-7.2,4.4-9.1
	c0.6-0.7,2.2-2.9,3.6-4.9c1.4-2.1,4-5.4,5.8-7.5c1.7-2,3.2-4,3.2-4.4C153,532,151.2,532,147,532.7z"/>
<path class="st2" d="M659.8,538.7c2.6,3.9,8.6,15.1,10.2,19.3c0.7,1.9,2.6,6.4,4.2,9.9c2.4,5.4,3,8.2,3.5,17.8
	c0.3,6.2,0.9,11.3,1.3,11.3c1.2,0,7-5.7,7-6.8c0-0.7,0.4-1.2,1-1.2c0.5,0,2.7-3.7,4.9-8.3c2.9-6,4-9.4,3.9-12.7
	c0-4.7-4.1-14.6-6.8-16.7c-1.7-1.3-29.6-15.3-30.5-15.3C658.1,536,658.7,537.2,659.8,538.7z"/>
<path class="st2" d="M150,563.7c0.7,2.9,0.2,5.9-2.2,14.3c-2.2,7.4-2.9,11.5-2.4,13.5c0.7,2.9,13.5,16.5,15.5,16.5
	c0.6,0,1.1,0.5,1.1,1.2c0,0.6,0.3,0.9,0.6,0.6c0.8-0.8,17.1,11.6,19.7,14.9c1.2,1.5,2.6,3.1,3.3,3.5c0.6,0.4,1.7,2.1,2.4,3.8
	c0.9,2.2,1.6,2.8,2.5,2c1.8-1.5,6.2-10.2,7-13.9c0.3-1.7,1.1-3.3,1.6-3.6c1.4-0.9,1.1-7.1-0.6-11.1c-0.8-1.9-2.7-4.8-4.2-6.4
	s-3.6-4-4.6-5.4c-1-1.5-2.8-2.6-3.9-2.6c-7.3,0-23.8-8.7-23.8-12.6c0-2.5-5.1-12.5-7.9-15.5C150.2,558.9,149,559.1,150,563.7z"/>
<path class="st2" d="M27.4,581.6c0.4,3.7,1.5,8.3,2.6,10.3C31.6,595,40.4,605,41.5,605c0.3,0,3.7,1.5,7.7,3.3c4,1.9,8.2,3.8,9.3,4.2
	c1.1,0.5,11.3,0.9,22.6,1c16,0,21,0.3,22.3,1.4c2.1,1.7,3.3,0.7,1.5-1.2c-0.8-0.8-4.6-5-8.6-9.4c-5.6-6.2-8.1-8.2-11.5-9.2
	c-2.4-0.7-4.5-1.6-4.8-2c-0.4-0.7-11.5-3.3-27.2-6.5c-3.1-0.6-6-1.4-6.4-1.9c-0.4-0.4-1.4-0.7-2.2-0.7c-2.2,0-8.3-3.1-12.3-6.2
	c-2-1.5-4-2.8-4.4-2.8S27,578,27.4,581.6z"/>
<path class="st2" d="M787.1,583.7c-0.5,1-1.3,1.5-1.7,1.1c-0.3-0.4-1.5,0.4-2.6,1.7c-1.1,1.4-2.9,2.5-4.2,2.5
	c-1.2,0-2.6,0.4-3.1,0.9c-1.1,0.9-7.3,2.6-16.5,4.3c-14.3,2.6-32,7.6-32,9c0,0.4-0.6,0.8-1.3,0.8c-1.5,0-6.2,4.8-9.1,9.5
	c-1.1,1.6-2.9,3.8-4,4.8c-5.6,4.8-8.5,8-9.1,10.4c-0.9,3.8,0.6,4.6,5.1,2.9c5.4-2,8.7-2.7,17.9-3.6c21-2.2,36.7-6,41.9-10.1
	c1.3-1,2.7-1.9,3-1.9c1.6,0,12.2-13.6,15.4-19.9c2.6-5,4.1-14.1,2.4-14.1C788.6,582,787.7,582.8,787.1,583.7z"/>
<path class="st2" d="M210.7,615.6c-2.6,0.5-2.3,0.7,3.5,3.9c3.5,1.8,7.9,4.7,9.9,6.4c5.5,4.5,15.5,17.3,18,22.8
	c1.2,2.6,3.2,5.6,4.3,6.6c3.2,2.7,12.5,7.3,19.7,9.7c7.9,2.7,20.3,3.8,21.4,2c0.4-0.7,0.3-1.5-0.2-1.9c-0.5-0.3-2.5-2.8-4.4-5.6
	c-3.4-5-4.6-6.6-6.4-8.8c-0.5-0.7-3.2-4.6-6-8.7c-2.7-4.1-5.8-8.3-6.7-9.4c-1-1.1-1.8-2.3-1.8-2.7c0-1.7,4.5-2,8.4-0.5
	c4,1.5,9.2,6.5,21.7,21c4,4.6,3.7,4.3,11.7,10.6c3.4,2.7,8.3,5.9,10.9,7s5,2.4,5.3,2.9c0.7,1,10.8,3.1,19.2,3.9
	c4.7,0.5,7.6,0.3,10-0.7l3.3-1.4l-2.5-1c-2.6-1.1-8.5-5.6-13-9.8c-2.3-2.2-9-12.2-9-13.5c0-0.7-4.9-7.3-7.9-10.7
	c-2.6-2.8-6.6-4.9-15.6-8.3c-2.8-1-10.3-2.2-21-3.4c-9.5-1.1-17.5-0.7-20.5,1.2c-1.4,0.9-2.3,0.7-4.5-1c-1.5-1.2-3.2-2.2-3.6-2.2
	c-0.5,0-2.8-0.8-5.2-1.9c-2.3-1-6.2-2.4-8.7-3.1c-2.5-0.8-5-1.8-5.7-2.2C234,615.8,214.9,614.9,210.7,615.6z"/>
<path class="st2" d="M79.8,642.9c0.2,1.7,1.3,3.8,2.3,4.7c1,0.9,1.9,2.2,1.9,2.7c0,1.9,15.1,13.8,22,17.2c1.9,1,4.2,2.3,5,3
	c2.9,2.3,21.3,4.5,38.7,4.5c23.8,0,30.3,1.1,42.1,6.8c4.5,2.2,5.5,2.4,6.3,1.1c1.4-2.3,1.1-4.3-1.6-7.9c-2.7-3.7-10.1-11-11-11
	c-0.4,0-3.1-1.1-6.1-2.5s-6.3-2.5-7.3-2.5s-3.8-0.7-6.2-1.5c-2.8-1-11.3-1.9-24.8-2.6c-31.6-1.5-43.4-4-56.2-11.8
	c-2.7-1.7-5.1-3.1-5.2-3.1C79.5,640,79.5,641.3,79.8,642.9z"/>
<path class="st2" d="M724.6,649.9c-0.9,1.4-7.7,4.4-12.1,5.3c-9,1.9-27.2,3.7-38.4,3.7c-19.4,0.1-33.8,4.8-42.1,13.6
	c-2.5,2.6-5.3,5.6-6.3,6.7c-1,1-1.5,2.3-1.2,2.8c0.4,0.6,0.1,1-0.4,1c-0.6,0-1.1,0.5-1.1,1.1c0,0.8,0.4,0.8,1.3,0.2
	c3.3-2.5,10.5-3.3,33.2-3.6c23.2-0.3,24.3-0.4,32.5-3.1c4.7-1.5,8.9-3.2,9.5-3.7c0.5-0.5,1.4-0.9,2.1-0.9c1.9,0,12.5-6.7,15.4-9.7
	c2.3-2.4,7-9,9.4-13.1C727.2,648.9,725.4,648.5,724.6,649.9z"/>
<path class="st2" d="M221.7,684c-6.2,4.9-20.4,9-31.2,9c-7.3,0-18.9-1.7-21.7-3.2c-3.3-1.6-1.9,1.1,3,6c2.7,2.9,7.6,6.3,11.7,8.3
	c6.7,3.2,7.5,3.4,17.5,3.3c6.5-0.1,14.3-1,20.5-2.3c21.4-4.6,31.2-6.1,40.9-6.1l10.1-0.1l-4.5-2.4c-13.4-7.4-24.6-12.5-28.3-12.9
	C228.5,682.2,223.9,682.3,221.7,684z"/>
<path class="st2" d="M580.5,685c-13.4,3.7-20.2,6.4-27.2,10.8c-2.3,1.5-4.2,3-4.3,3.5c0,0.4,3.5,0.5,7.8,0.1c7.6-0.6,23,1.4,27,3.6
	c1,0.5,4.2,1.6,7.2,2.5s6.2,1.9,7,2.2s2.2,0.7,3,0.8c0.8,0.2,3.1,0.8,5,1.4c10.7,3.4,33.1-3.1,44-12.7c1.9-1.7,4.6-3.9,6-5.1
	c2.1-1.7,2.3-2.2,1.1-3.3c-0.8-0.7-1.1-0.8-0.7-0.1c0.4,0.8-1.8,1.7-7,2.8c-6,1.4-10.5,1.6-22.5,1.2c-8.1-0.3-15.7-1.1-16.8-1.6
	c-4-2.2-20.6-7.1-23.6-7C584.9,684.2,582.2,684.6,580.5,685z"/>
<path class="st2" d="M303,701c-3.1,0.4-6.5,1.2-7.7,1.8c-1.2,0.7-3.3,1.2-4.7,1.2s-2.6,0.4-2.6,0.9s-1,1.1-2.2,1.4
	c-1.3,0.2-6.1,1.9-10.8,3.7c-4.7,1.8-13.4,4.5-19.4,6.1c-9.4,2.5-12.8,2.9-24.1,2.9c-8.9,0-13.5-0.4-14.3-1.2
	c-0.7-0.7-1.2-0.8-1.2-0.2c0,1.3,12.8,7.8,18.5,9.5c2.2,0.6,5.1,1.5,6.5,2c1.4,0.4,7.6,1.8,13.9,3c13.1,2.5,20.8,2.2,35.6-1.1
	c5-1.2,10.1-2.4,11.5-2.7s3.9-1.8,5.5-3.3c7.2-6.6,27.7-14.9,36.8-15c5.8,0,4.5-2.4-3-5.3C330.3,700.4,317.4,699.1,303,701z"/>
<path class="st2" d="M496,702.5c-3,0.7-5.8,1.1-6.2,0.9c-0.4-0.3-2.4,0.2-4.4,1.1c-2,0.8-4.4,1.5-5.3,1.5s-2.4,0.7-3.4,1.5
	c-1.7,1.2-1.3,1.5,4.2,3.1c3.4,0.9,6.1,2,6.1,2.3c0,0.4,2,1.3,4.5,2c2.5,0.7,4.5,1.7,4.5,2.2s0.5,0.9,1.1,0.9c1.4,0,6.9,5.5,6.9,6.9
	c0,0.6,0.2,1.1,0.5,1.1c0.3,0,4,1,8.3,2.2c6.8,2,10,2.3,27.7,2.3c12.9,0,22.7-0.5,27.5-1.4c8.4-1.5,21-4.8,21.8-5.6
	c0.3-0.3-2.4-0.5-5.9-0.5c-6.5,0-23.8-3.8-29.4-6.4c-6.7-3.2-27.5-10.7-34.5-12.5C509.6,701.4,502.5,701,496,702.5z"/>
</svg>
